<?xml version="1.0" encoding="UTF-8"?>
<svg id="Layer_1" data-name="Layer 1" xmlns="http://www.w3.org/2000/svg" version="1.1" viewBox="0 0 800 800">
  <defs>
    <style>
      .cls-1 {
        fill: #27e9b5;
        stroke-width: 0px;
      }
    </style>
  </defs>
  <g id="c133de6af664cd4f011a55de6b001a2b">
    <path class="cls-1" d="M318.8,72.9v34.4h-88V.8h88v37.7h-50.3v34.5h50.3ZM409.3,38.5h35.1V.8h-88v37.7c11.8,11.8,17.9,17.4,34.9,34.4-10,0-34.9,0-34.9,0v34.4h88v-34.4l-35.1-34.5ZM534,38.5h35.1V.8h-88v37.7c11.8,11.8,17.9,17.4,34.9,34.4-9.9,0-34.9,0-34.9,0v34.4h88v-34.4l-35.1-34.5ZM685,158l-53.4,578.9-231.6,62.3-231.6-62.3L115,158h570ZM577.3,275.7H219.1l8.6,69.9h181.7l-9.7,4-165.7,69,5.5,68.3,160.2.5,85.9.3-5.5,91.1-80.4,22.6h0c0,0-.7.1-.7.1l-77.6-19.6-4.7-56.6h-72.5l9.4,109.2,146.1,43.2h0c0,0,.3,0,.3,0l145.3-42.4,18.9-216.8h-164.8l.4-.2,170.4-72.9,7.1-69.9Z"/>
  </g>
</svg>