<?xml version="1.0" encoding="UTF-8"?>
<svg id="Layer_1" data-name="Layer 1" xmlns="http://www.w3.org/2000/svg" version="1.1" viewBox="0 0 800 800">
  <defs>
    <style>
      .cls-1 {
        fill: #27e9b5;
        stroke-width: 0px;
      }
    </style>
  </defs>
  <g id="c133de6af664cd4f011a55de6b000d0b">
    <path class="cls-1" d="M169.8.8h36v35.6h32.9V.8h36v107.7h-36v-36.1h-32.9v36.1h-36V.8h0ZM322,36.5h-31.7V.8h99.4v35.7h-31.7v72h-36V36.5h0ZM405.5.8h37.5l23.1,37.8L489.1.8h37.5v107.7h-35.8v-53.4l-24.8,38.3h-.6l-24.8-38.3v53.4h-35.2V.8h0ZM544.6.8h36v72.1h50.6v35.6h-86.6V.8ZM117.2,157.7l51.5,577.4,231,64.1,231.6-64.2,51.5-577.3H117.2ZM575.5,294.7l-3.2,35.9-1.4,15.9h-271l6.5,72.5h258.1l-1.7,19-16.6,186.4-1.1,12-144.9,40.2h0s-.3.1-.3.1l-145.1-40.3-9.9-111.2h71.1l5,56.5,78.9,21.3h0s79-21.3,79-21.3l8.2-91.8h-245.4l-17.4-195.2-1.7-19h354.7l-1.7,19Z"/>
  </g>
</svg>