<?xml version="1.0" encoding="UTF-8"?>
<svg id="Layer_1" data-name="Layer 1" xmlns="http://www.w3.org/2000/svg" version="1.1" viewBox="0 0 800 800">
  <defs>
    <style>
      .cls-1 {
        fill: #27e9b5;
        stroke-width: 0px;
      }
    </style>
  </defs>
  <path class="cls-1" d="M432.8,369.7h-70.2c0,60.5-.3,120.7-.3,181.3.8,8.2,1.3,17.8,1.3,27.5,0,20.2-2,40-5.9,59.1l.3-1.9c-10.3,21.5-36.9,18.8-48.9,15-11.3-6.1-20.2-15.2-25.8-26.4v-.3c-1.2-2.3-2.6-4.3-4.1-6.2h0s-57,35.2-57,35.2c9.2,19.8,23.4,35.9,40.9,47.1l.4.3c19.1,10.7,41.9,16.9,66.1,16.9s23.9-1.6,35-4.5l-1,.2c24.7-6.2,44.8-22.2,56.4-43.6l.2-.5c9-22.8,14.1-49.3,14.1-77s-.6-19.3-1.9-28.6v1.1c.5-64.2.1-128.4.1-193.1v-1.8ZM713.5,596.1c-5.5-34.2-27.8-62.9-93.8-89.8-23-10.8-48.5-18.3-56.2-35.6-1.6-4-2.5-8.5-2.5-13.3s.4-6.1,1.1-9v.3c5.1-13.7,18.2-23.4,33.5-23.4s9.7,1,14,2.8h-.2c13.8,4.7,24.7,14.8,30.4,27.7v.3q32.4-21.1,54.9-35.2c-5.4-9.2-11.5-17.2-18.3-24.4h0c-19.2-20.3-46.3-32.9-76.4-32.9s-8.5.3-12.6.7h.5s-22,2.7-22,2.7c-21.4,4.9-39.7,16-53.3,31.3h0c-13.4,16.7-21.5,38.1-21.5,61.3s15.3,60.4,39,78.3l.3.2c42.6,31.9,105,38.9,113,68.9,7.5,36.5-27.2,48.3-61.4,44-23.9-5.5-43.5-20.7-54.6-41.3l-.2-.4-57.2,32.8c6.7,13.4,15.2,24.8,25.3,34.6h0c54.3,54.9,190.3,52.1,214.7-31.3,2.8-9.1,4.4-19.5,4.4-30.4s-.8-14.8-2.3-21.9v.7c.1,0,1.6,2.1,1.6,2.1ZM25.1,25.1h749.8v749.8H25.1V25.1Z"/>
</svg>