<?xml version="1.0" encoding="UTF-8" standalone="no"?>
<!-- Uploaded to: SVG Repo, www.svgrepo.com, Generator: SVG Repo Mixer Tools -->

<svg
   width="800"
   height="800"
   viewBox="0 0 24 24"
   fill="none"
   version="1.1"
   id="svg2"
   xmlns="http://www.w3.org/2000/svg"
   xmlns:svg="http://www.w3.org/2000/svg">
  <defs
     id="defs2" />
  <path
     fill-rule="evenodd"
     clip-rule="evenodd"
     d="M 5.87884,2.87868 C 5.00016,3.75736 5.00016,5.17157 5.00016,8 v 8 c 0,2.8284 0,4.2426 0.87868,5.1213 C 6.75752,22 8.17174,22 11.0002,22 h 2 c 2.8284,0 4.2426,0 5.1213,-0.8787 C 19.0002,20.2426 19.0002,18.8284 19.0002,16 V 8 c 0,-2.82843 0,-4.24264 -0.8787,-5.12132 C 17.2428,2 15.8286,2 13.0002,2 h -2 C 8.17174,2 6.75752,2 5.87884,2.87868 Z M 9.50016,18.25 c -0.41421,0 -0.75,0.3358 -0.75,0.75 0,0.4142 0.33579,0.75 0.75,0.75 h 5.00004 c 0.4142,0 0.75,-0.3358 0.75,-0.75 0,-0.4142 -0.3358,-0.75 -0.75,-0.75 z"
     fill="#1C274C"
     id="path1"
     style="fill:#27e9b5;fill-opacity:1" />
  <path
     fill-rule="evenodd"
     clip-rule="evenodd"
     d="M 1.66475,5.32918 C 2.03524,5.14394 2.48574,5.29411 2.67098,5.66459 l 0.7764,1.55279 c 0.24633,0.49267 0.24633,1.07257 0,1.56524 L 2.89459,9.8882 c -0.03519,0.07038 -0.03519,0.1532 0,0.2236 l 0.55279,1.1056 c 0.24633,0.4927 0.24633,1.0726 0,1.5652 l -0.55279,1.1056 c -0.03519,0.0704 -0.03519,0.1532 0,0.2236 l 0.55279,1.1056 c 0.24633,0.4926 0.24633,1.0726 0,1.5652 l -0.7764,1.5528 C 2.48574,18.7059 2.03524,18.8561 1.66475,18.6708 1.29427,18.4856 1.1441,18.0351 1.32934,17.6646 l 0.7764,-1.5528 c 0.03519,-0.0704 0.03519,-0.1532 0,-0.2236 L 1.55295,14.7826 c -0.24634,-0.4926 -0.24634,-1.0726 0,-1.5652 l 0.55279,-1.1056 c 0.03519,-0.0704 0.03519,-0.1532 0,-0.2236 L 1.55295,10.7826 C 1.30661,10.29 1.30661,9.71005 1.55295,9.21738 L 2.10574,8.1118 c 0.03519,-0.07038 0.03519,-0.15322 0,-0.2236 L 1.32934,6.33541 C 1.1441,5.96493 1.29427,5.51442 1.66475,5.32918 Z m 20.67085,0 c 0.3705,0.18524 0.5206,0.63575 0.3354,1.00623 L 21.8946,7.8882 c -0.0352,0.07038 -0.0352,0.15322 0,0.2236 l 0.5528,1.10558 c 0.2463,0.49267 0.2463,1.07262 0,1.56522 l -0.5528,1.1056 c -0.0352,0.0704 -0.0352,0.1532 0,0.2236 l 0.5528,1.1056 c 0.2463,0.4926 0.2463,1.0726 0,1.5652 l -0.5528,1.1056 c -0.0352,0.0704 -0.0352,0.1532 0,0.2236 l 0.7764,1.5528 c 0.1852,0.3705 0.0351,0.821 -0.3354,1.0062 -0.3705,0.1853 -0.821,0.0351 -1.0063,-0.3354 l -0.7764,-1.5528 c -0.2463,-0.4926 -0.2463,-1.0726 0,-1.5652 l 0.5528,-1.1056 c 0.0352,-0.0704 0.0352,-0.1532 0,-0.2236 l -0.5528,-1.1056 c -0.2463,-0.4926 -0.2463,-1.0726 0,-1.5652 l 0.5528,-1.1056 c 0.0352,-0.0704 0.0352,-0.15322 0,-0.2236 L 20.5529,8.78262 c -0.2463,-0.49267 -0.2463,-1.07257 0,-1.56524 l 0.7764,-1.55279 c 0.1853,-0.37048 0.6358,-0.52065 1.0063,-0.33541 z"
     fill="#1C274C"
     id="path2"
     style="fill:#27e9b5;fill-opacity:1" />
</svg>
